<svg width="430" height="932" viewBox="0 0 430 932" fill="none" xmlns="http://www.w3.org/2000/svg">
<g clip-path="url(#clip0_35_2)">
<rect width="430" height="932" fill="url(#paint0_linear_35_2)"/>
<rect width="430" height="932" fill="url(#paint1_linear_35_2)"/>
<circle cx="368.898" cy="898.347" r="0.281902" fill="white"/>
<circle cx="111.487" cy="415.721" r="0.266822" fill="white"/>
<circle cx="296.839" cy="738.056" r="0.294753" fill="white"/>
<circle cx="52.8829" cy="255.258" r="0.380906" fill="white"/>
<circle cx="169.002" cy="670.666" r="0.252195" fill="white"/>
<circle cx="205.915" cy="868.752" r="0.372298" fill="white"/>
<circle cx="419.199" cy="740.946" r="0.319524" fill="white"/>
<circle cx="329.76" cy="930.483" r="0.43695" fill="white"/>
<circle cx="117.832" cy="633.551" r="0.486302" fill="white"/>
<circle cx="40.111" cy="739.713" r="0.30438" fill="white"/>
<circle cx="145.873" cy="817.227" r="0.272536" fill="white"/>
<circle cx="298.798" cy="91.6912" r="0.410899" fill="white"/>
<circle cx="228.261" cy="352.71" r="0.475957" fill="white"/>
<circle cx="148.36" cy="711.537" r="0.271582" fill="white"/>
<circle cx="174.471" cy="651.813" r="0.458558" fill="white"/>
<circle cx="265.935" cy="696.378" r="0.479604" fill="white"/>
<circle cx="287.931" cy="863.732" r="0.446134" fill="white"/>
<circle cx="169.712" cy="287.621" r="0.349916" fill="white"/>
<circle cx="173.092" cy="874.971" r="0.495399" fill="white"/>
<circle cx="353.003" cy="829.581" r="0.427629" fill="white"/>
<circle cx="159.562" cy="210.835" r="0.336702" fill="white"/>
<circle cx="426.918" cy="685.78" r="0.429212" fill="white"/>
<circle cx="398.27" cy="293.445" r="0.294548" fill="white"/>
<circle cx="118.594" cy="32.3749" r="0.345098" fill="white"/>
<circle cx="43.2406" cy="877.495" r="0.272854" fill="white"/>
<circle cx="139.162" cy="59.6946" r="0.473363" fill="white"/>
<circle cx="203.382" cy="781.176" r="0.47149" fill="white"/>
<circle cx="206.042" cy="276.927" r="0.416761" fill="white"/>
<circle cx="243.658" cy="448.458" r="0.442047" fill="white"/>
<circle cx="284.734" cy="176.317" r="0.387274" fill="white"/>
<circle cx="179.474" cy="553.508" r="0.272607" fill="white"/>
<circle cx="86.4943" cy="179.528" r="0.334584" fill="white"/>
<circle cx="214.443" cy="362.108" r="0.398561" fill="white"/>
<circle cx="179.448" cy="359.383" r="0.332108" fill="white"/>
<circle cx="403.452" cy="701.177" r="0.250724" fill="white"/>
<circle cx="379.436" cy="488.15" r="0.489572" fill="white"/>
<circle cx="341.215" cy="210.461" r="0.365396" fill="white"/>
<circle cx="166.725" cy="922.853" r="0.280205" fill="white"/>
<circle cx="299.813" cy="543.148" r="0.292344" fill="white"/>
<circle cx="60.952" cy="422.348" r="0.346564" fill="white"/>
<g clip-path="url(#clip1_35_2)">
<circle cx="132.597" cy="755.086" r="0.281902" transform="rotate(33.6936 132.597 755.086)" fill="white"/>
<circle cx="186.166" cy="210.734" r="0.266822" transform="rotate(33.6936 186.166 210.734)" fill="white"/>
<circle cx="161.565" cy="581.747" r="0.294753" transform="rotate(33.6936 161.565 581.747)" fill="white"/>
<circle cx="226.423" cy="44.7157" r="0.380906" transform="rotate(33.6936 226.423 44.7157)" fill="white"/>
<circle cx="92.588" cy="454.759" r="0.252195" transform="rotate(33.6936 92.588 454.759)" fill="white"/>
<circle cx="13.4113" cy="640.047" r="0.372298" transform="rotate(33.6936 13.4113 640.047)" fill="white"/>
<circle cx="261.768" cy="652.031" r="0.319524" transform="rotate(33.6936 261.768 652.031)" fill="white"/>
<circle cx="82.2066" cy="760.112" r="0.43695" transform="rotate(33.6936 82.2066 760.112)" fill="white"/>
<circle cx="70.6031" cy="395.491" r="0.486302" transform="rotate(33.6936 70.6031 395.491)" fill="white"/>
<circle cx="318.279" cy="223.088" r="0.475957" transform="rotate(33.6936 318.279 223.088)" fill="white"/>
<circle cx="52.7403" cy="477.313" r="0.271582" transform="rotate(33.6936 52.7403 477.313)" fill="white"/>
<circle cx="107.596" cy="442.106" r="0.458558" transform="rotate(33.6936 107.596 442.106)" fill="white"/>
<circle cx="158.974" cy="529.925" r="0.479604" transform="rotate(33.6936 158.974 529.925)" fill="white"/>
<circle cx="84.4342" cy="681.369" r="0.446134" transform="rotate(33.6936 84.4342 681.369)" fill="white"/>
<circle cx="305.673" cy="136.453" r="0.349916" transform="rotate(33.6936 305.673 136.453)" fill="white"/>
<circle cx="157.521" cy="689.053" r="0.427629" transform="rotate(33.6936 157.521 689.053)" fill="white"/>
<circle cx="339.826" cy="66.9352" r="0.336702" transform="rotate(33.6936 339.826 66.9352)" fill="white"/>
<circle cx="298.794" cy="610.414" r="0.429212" transform="rotate(33.6936 298.794 610.414)" fill="white"/>
<circle cx="59.8861" cy="565.777" r="0.47149" transform="rotate(33.6936 59.8861 565.777)" fill="white"/>
<circle cx="341.833" cy="147.71" r="0.416761" transform="rotate(33.6936 341.833 147.71)" fill="white"/>
<circle cx="277.973" cy="311.294" r="0.442047" transform="rotate(33.6936 277.973 311.294)" fill="white"/>
<circle cx="166.294" cy="363.091" r="0.272607" transform="rotate(33.6936 166.294 363.091)" fill="white"/>
<circle cx="296.4" cy="0.353638" r="0.334584" transform="rotate(33.6936 296.4 0.353638)" fill="white"/>
<circle cx="301.569" cy="223.242" r="0.398561" transform="rotate(33.6936 301.569 223.242)" fill="white"/>
<circle cx="273.964" cy="201.561" r="0.332108" transform="rotate(33.6936 273.964 201.561)" fill="white"/>
<circle cx="270.727" cy="610.206" r="0.250724" transform="rotate(33.6936 270.727 610.206)" fill="white"/>
<circle cx="368.923" cy="419.641" r="0.489572" transform="rotate(33.6936 368.923 419.641)" fill="white"/>
<circle cx="272.165" cy="421.229" r="0.292344" transform="rotate(33.6936 272.165 421.229)" fill="white"/>
<circle cx="140.443" cy="188.214" r="0.346564" transform="rotate(33.6936 140.443 188.214)" fill="white"/>
</g>
<circle cx="74.7631" cy="612.763" r="1.76305" fill="white"/>
<circle cx="126.57" cy="702.156" r="1.69947" fill="white"/>
<g clip-path="url(#clip2_35_2)">
<circle cx="272.205" cy="131.205" r="1.20461" fill="white"/>
<circle cx="274.581" cy="575.867" r="1.58105" fill="white"/>
<circle cx="333.085" cy="386.57" r="1.3019" fill="white"/>
<circle cx="120.178" cy="304.973" r="1.17771" fill="white"/>
<circle cx="138.205" cy="107.405" r="1.40549" fill="white"/>
<circle cx="293.541" cy="532.445" r="1.61347" fill="white"/>
<circle cx="337.092" cy="378.517" r="1.16303" fill="white"/>
<circle cx="149.29" cy="598.921" r="1.66142" fill="white"/>
<circle cx="153.415" cy="241.415" r="1.41506" fill="white"/>
<circle cx="286.954" cy="322.666" r="1.95439" fill="white"/>
<circle cx="349.253" cy="270.975" r="1.97453" fill="white"/>
<circle cx="303.928" cy="527.8" r="1.79969" fill="white"/>
<circle cx="157.863" cy="134.101" r="1.81792" fill="white"/>
</g>
</g>
<defs>
<linearGradient id="paint0_linear_35_2" x1="215" y1="0" x2="215" y2="932" gradientUnits="userSpaceOnUse">
<stop stop-color="#084483"/>
<stop offset="1" stop-color="#0E1824"/>
</linearGradient>
<linearGradient id="paint1_linear_35_2" x1="215" y1="0" x2="215" y2="932" gradientUnits="userSpaceOnUse">
<stop stop-color="#084483" stop-opacity="0"/>
<stop offset="1" stop-color="#0E1824"/>
</linearGradient>
<clipPath id="clip0_35_2">
<rect width="430" height="932" fill="white"/>
</clipPath>
<clipPath id="clip1_35_2">
<rect width="430" height="932" fill="white" transform="translate(324.029 -197) rotate(33.6936)"/>
</clipPath>
<clipPath id="clip2_35_2">
<rect width="300" height="700" fill="white" transform="translate(68 38)"/>
</clipPath>
</defs>
</svg>
